<svg xmlns="http://www.w3.org/2000/svg" viewBox="0 0 800 600" width="800" height="600">
  <style>
    .st0{fill:#F5F7FA;}
    .st1{fill:#DCE3ED;}
    .st2{fill:#FFFFFF;}
    .st3{fill:#007BFF;}
    .st4{fill:#6C63FF;}
    .st5{fill:#3F3D56;}
    .st6{fill:#2F2E41;}
  </style>

  <!-- Background elements -->
  <circle class="st0" cx="400" cy="300" r="250"/>

  <!-- Desktop Computer -->
  <rect class="st5" x="250" y="200" width="300" height="200" rx="5" ry="5"/>
  <rect class="st2" x="260" y="210" width="280" height="170" rx="2" ry="2"/>
  <rect class="st5" x="320" y="400" width="160" height="20" rx="5" ry="5"/>
  <rect class="st5" x="370" y="420" width="60" height="10"/>

  <!-- Desktop Screen Content -->
  <rect class="st3" x="260" y="210" width="280" height="30"/>
  <circle class="st2" cx="275" cy="225" r="5"/>
  <circle class="st2" cx="290" cy="225" r="5"/>
  <circle class="st2" cx="305" cy="225" r="5"/>

  <rect class="st1" x="270" y="250" width="100" height="15" rx="2" ry="2"/>
  <rect class="st1" x="270" y="275" width="260" height="10" rx="2" ry="2"/>
  <rect class="st1" x="270" y="295" width="260" height="10" rx="2" ry="2"/>
  <rect class="st1" x="270" y="315" width="260" height="10" rx="2" ry="2"/>
  <rect class="st1" x="270" y="335" width="180" height="10" rx="2" ry="2"/>

  <rect class="st4" x="270" y="355" width="60" height="15" rx="7.5" ry="7.5"/>

  <!-- Tablet -->
  <rect class="st5" x="100" y="250" width="120" height="160" rx="10" ry="10"/>
  <rect class="st2" x="110" y="260" width="100" height="130" rx="2" ry="2"/>
  <circle class="st5" cx="160" cy="400" r="5"/>

  <!-- Tablet Screen Content -->
  <rect class="st3" x="110" y="260" width="100" height="20"/>
  <circle class="st2" cx="120" cy="270" r="3"/>
  <circle class="st2" cx="130" cy="270" r="3"/>
  <circle class="st2" cx="140" cy="270" r="3"/>

  <rect class="st1" x="115" y="290" width="40" height="10" rx="2" ry="2"/>
  <rect class="st1" x="115" y="310" width="90" height="5" rx="2" ry="2"/>
  <rect class="st1" x="115" y="320" width="90" height="5" rx="2" ry="2"/>
  <rect class="st1" x="115" y="330" width="90" height="5" rx="2" ry="2"/>
  <rect class="st1" x="115" y="340" width="60" height="5" rx="2" ry="2"/>

  <rect class="st4" x="115" y="355" width="30" height="10" rx="5" ry="5"/>

  <!-- Smartphone -->
  <rect class="st5" x="580" y="250" width="70" height="140" rx="10" ry="10"/>
  <rect class="st2" x="585" y="260" width="60" height="110" rx="2" ry="2"/>
  <circle class="st5" cx="615" cy="380" r="5"/>
  <rect class="st5" x="605" y="255" width="20" height="3" rx="1.5" ry="1.5"/>

  <!-- Smartphone Screen Content -->
  <rect class="st3" x="585" y="260" width="60" height="15"/>
  <circle class="st2" cx="595" cy="267.5" r="2"/>
  <circle class="st2" cx="602" cy="267.5" r="2"/>

  <rect class="st1" x="590" y="285" width="25" height="8" rx="2" ry="2"/>
  <rect class="st1" x="590" y="300" width="50" height="4" rx="2" ry="2"/>
  <rect class="st1" x="590" y="310" width="50" height="4" rx="2" ry="2"/>
  <rect class="st1" x="590" y="320" width="50" height="4" rx="2" ry="2"/>
  <rect class="st1" x="590" y="330" width="35" height="4" rx="2" ry="2"/>

  <rect class="st4" x="590" y="345" width="20" height="8" rx="4" ry="4"/>

  <!-- Decorative elements -->
  <circle class="st3" cx="650" cy="150" r="15"/>
  <circle class="st4" cx="150" cy="500" r="20"/>
  <circle class="st3" cx="700" cy="400" r="10"/>
  <circle class="st4" cx="600" cy="100" r="8"/>
  <circle class="st3" cx="100" cy="200" r="12"/>
</svg>
