<svg xmlns="http://www.w3.org/2000/svg" viewBox="0 0 800 600" width="800" height="600">
  <style>
    .st0{fill:#F5F7FA;}
    .st1{fill:#DCE3ED;}
    .st2{fill:#FFFFFF;}
    .st3{fill:#007BFF;}
    .st4{fill:#6C63FF;}
    .st5{fill:#3F3D56;}
    .st6{fill:#2F2E41;}
    .st7{fill:#FFB8B8;}
  </style>

  <!-- Background elements -->
  <circle class="st0" cx="400" cy="300" r="250"/>
  <path class="st1" d="M600,450c-33.1,0-60-26.9-60-60s26.9-60,60-60s60,26.9,60,60S633.1,450,600,450z"/>
  <path class="st1" d="M200,150c-22.1,0-40-17.9-40-40s17.9-40,40-40s40,17.9,40,40S222.1,150,200,150z"/>

  <!-- Task board -->
  <rect class="st2" x="250" y="150" width="300" height="350" rx="10" ry="10"/>
  <rect class="st3" x="250" y="150" width="300" height="50" rx="10" ry="10"/>
  <circle class="st2" cx="280" cy="175" r="10"/>
  <circle class="st2" cx="310" cy="175" r="10"/>
  <circle class="st2" cx="340" cy="175" r="10"/>

  <!-- Task items -->
  <rect class="st1" x="270" y="220" width="260" height="40" rx="5" ry="5"/>
  <rect class="st4" x="280" y="230" width="20" height="20" rx="3" ry="3"/>
  <line class="st5" x1="310" y1="240" x2="510" y2="240" style="stroke:#3F3D56;stroke-width:2"/>

  <rect class="st1" x="270" y="270" width="260" height="40" rx="5" ry="5"/>
  <rect class="st3" x="280" y="280" width="20" height="20" rx="3" ry="3"/>
  <line class="st5" x1="310" y1="290" x2="510" y2="290" style="stroke:#3F3D56;stroke-width:2"/>

  <rect class="st1" x="270" y="320" width="260" height="40" rx="5" ry="5"/>
  <rect class="st4" x="280" y="330" width="20" height="20" rx="3" ry="3"/>
  <line class="st5" x1="310" y1="340" x2="510" y2="340" style="stroke:#3F3D56;stroke-width:2"/>

  <rect class="st1" x="270" y="370" width="260" height="40" rx="5" ry="5"/>
  <rect class="st3" x="280" y="380" width="20" height="20" rx="3" ry="3"/>
  <line class="st5" x1="310" y1="390" x2="510" y2="390" style="stroke:#3F3D56;stroke-width:2"/>

  <rect class="st1" x="270" y="420" width="260" height="40" rx="5" ry="5"/>
  <rect class="st4" x="280" y="430" width="20" height="20" rx="3" ry="3"/>
  <line class="st5" x1="310" y1="440" x2="510" y2="440" style="stroke:#3F3D56;stroke-width:2"/>

  <!-- Person -->
  <circle class="st7" cx="150" cy="350" r="30"/>
  <path class="st6" d="M150,380c-16.6,0-30-13.4-30-30s13.4-30,30-30s30,13.4,30,30S166.6,380,150,380z M150,330c-11,0-20,9-20,20s9,20,20,20s20-9,20-20S161,330,150,330z"/>
  <path class="st6" d="M130,400c0-11,9-20,20-20s20,9,20,20v50h-40V400z"/>
  <path class="st5" d="M170,390c0,0,10,10,30,5c20-5,30,15,30,15s-20,40-40,40s-40-20-40-20L170,390z"/>
  <path class="st5" d="M130,390c0,0-10,10-30,5c-20-5-30,15-30,15s20,40,40,40s40-20,40-20L130,390z"/>

  <!-- Decorative elements -->
  <circle class="st3" cx="650" cy="150" r="15"/>
  <circle class="st4" cx="150" cy="500" r="20"/>
  <circle class="st3" cx="700" cy="400" r="10"/>
  <circle class="st4" cx="600" cy="100" r="8"/>
  <circle class="st3" cx="100" cy="200" r="12"/>
</svg>
